# xmcd
#
# Track frame offsets:
#	150
#	12880
#	27855
#	46615
#	63420
#	77027
#	91380
#	105405
#	121765
#	136292
#	151587
#	168860
#	185207
#	199165
#
# Disc length: 2880 seconds
#
# Revision: 1
# Processed by: cddbd v1.4PL0 Copyright (c) Steve Scherf et al.
# Submitted via: audiograbber 1.81.01
#
DISCID=a30b3e0e
DTITLE=Galpão Criolo - Galpão Criolo 20 anos
DYEAR=1900
DGENRE=Nativista
TTITLE0=Galpão Criolo  (Ernesto Fagundes)
TTITLE1=Pisca-pisca (Gaúcho da fronteira)
TTITLE2=De Chão Batido (Os Serranos)
TTITLE3=Batendo Água (Luiz Marenco)
TTITLE4=Embalo da Festança (Tchê Garotos)
TTITLE5=Vai que Vai (Os Monarcas)
TTITLE6=Ciranda do Interior (Daniel Torres)
TTITLE7=Herança Nativa (Oswaldir e Carlos Magrão)
TTITLE8=É Sábado o Dia (Tchê Barbaridade)
TTITLE9=Tô no Vanerão (Neto Fagundes)
TTITLE10=Alvorotada (Leonel Gomez)
TTITLE11=Festança Rural (Rui Biriva)
TTITLE12=Esbarrando (Renato Borghetti)
TTITLE13=Gaúcho (Antônio Augusto Fagundes)
EXTD=Música Gaúcha (Brasil)
EXTT0=
EXTT1=
EXTT2=
EXTT3=
EXTT4=
EXTT5=
EXTT6=
EXTT7=
EXTT8=
EXTT9=
EXTT10=
EXTT11=
EXTT12=
EXTT13=
PLAYORDER=
